<mxfile host="Electron" agent="Mozilla/5.0 (Macintosh; Intel Mac OS X 10_15_7) AppleWebKit/537.36 (KHTML, like Gecko) draw.io/26.2.2 Chrome/134.0.6998.178 Electron/35.1.2 Safari/537.36" version="26.2.2">
  <diagram id="E2ULkJl6go0xUk4_vNiQ" name="Page-1">
    <mxGraphModel dx="2600" dy="1686" grid="1" gridSize="10" guides="1" tooltips="1" connect="1" arrows="1" fold="1" page="0" pageScale="1" pageWidth="1100" pageHeight="850" math="0" shadow="0">
      <root>
        <mxCell id="0" />
        <mxCell id="1" parent="0" />
        <mxCell id="MnviZEQy9tbMUkRqoLun-5" value="" style="rounded=0;whiteSpace=wrap;html=1;strokeColor=none;fillColor=#D4E1F5;" parent="1" vertex="1">
          <mxGeometry x="780" y="150" width="170" height="570" as="geometry" />
        </mxCell>
        <mxCell id="MnviZEQy9tbMUkRqoLun-4" value="" style="rounded=0;whiteSpace=wrap;html=1;fillColor=#f9f7ed;strokeColor=none;" parent="1" vertex="1">
          <mxGeometry x="40" y="150" width="740" height="570" as="geometry" />
        </mxCell>
        <mxCell id="Ex4z-IKD_1BD_rlcXjND-8" style="edgeStyle=orthogonalEdgeStyle;rounded=0;orthogonalLoop=1;jettySize=auto;html=1;entryX=0;entryY=0.25;entryDx=0;entryDy=0;dashed=1;" parent="1" source="Ex4z-IKD_1BD_rlcXjND-9" target="J5lEDxen7dhJZbyypbdc-8" edge="1">
          <mxGeometry relative="1" as="geometry">
            <mxPoint x="810" y="480" as="targetPoint" />
            <Array as="points">
              <mxPoint x="760" y="365" />
              <mxPoint x="760" y="460" />
            </Array>
          </mxGeometry>
        </mxCell>
        <mxCell id="Ex4z-IKD_1BD_rlcXjND-9" value="requirements phase gate signoff (other)" style="shape=process;whiteSpace=wrap;html=1;backgroundOutline=1;dashed=1;" parent="1" vertex="1">
          <mxGeometry x="597" y="335" width="120" height="60" as="geometry" />
        </mxCell>
        <mxCell id="Ex4z-IKD_1BD_rlcXjND-10" style="edgeStyle=orthogonalEdgeStyle;rounded=0;orthogonalLoop=1;jettySize=auto;html=1;entryX=0.5;entryY=0;entryDx=0;entryDy=0;dashed=1;" parent="1" source="Ex4z-IKD_1BD_rlcXjND-11" target="Ex4z-IKD_1BD_rlcXjND-9" edge="1">
          <mxGeometry relative="1" as="geometry" />
        </mxCell>
        <mxCell id="Ex4z-IKD_1BD_rlcXjND-11" value="" style="shape=umlActor;verticalLabelPosition=bottom;labelBackgroundColor=#ffffff;verticalAlign=top;html=1;outlineConnect=0;fillColor=none;" parent="1" vertex="1">
          <mxGeometry x="642" y="185" width="30" height="60" as="geometry" />
        </mxCell>
        <mxCell id="Ex4z-IKD_1BD_rlcXjND-3" value="" style="shape=umlActor;verticalLabelPosition=bottom;labelBackgroundColor=#ffffff;verticalAlign=top;html=1;outlineConnect=0;fillColor=none;" parent="1" vertex="1">
          <mxGeometry x="632" y="175" width="30" height="60" as="geometry" />
        </mxCell>
        <mxCell id="Ex4z-IKD_1BD_rlcXjND-4" style="edgeStyle=orthogonalEdgeStyle;rounded=0;orthogonalLoop=1;jettySize=auto;html=1;entryX=0.5;entryY=0;entryDx=0;entryDy=0;dashed=1;" parent="1" source="Ex4z-IKD_1BD_rlcXjND-3" target="Ex4z-IKD_1BD_rlcXjND-5" edge="1">
          <mxGeometry relative="1" as="geometry" />
        </mxCell>
        <mxCell id="Ex4z-IKD_1BD_rlcXjND-5" value="requirements phase gate signoff (other)" style="shape=process;whiteSpace=wrap;html=1;backgroundOutline=1;dashed=1;" parent="1" vertex="1">
          <mxGeometry x="587" y="325" width="120" height="60" as="geometry" />
        </mxCell>
        <mxCell id="Ex4z-IKD_1BD_rlcXjND-6" style="edgeStyle=orthogonalEdgeStyle;rounded=0;orthogonalLoop=1;jettySize=auto;html=1;entryX=0;entryY=0.25;entryDx=0;entryDy=0;dashed=1;" parent="1" source="Ex4z-IKD_1BD_rlcXjND-5" target="J5lEDxen7dhJZbyypbdc-8" edge="1">
          <mxGeometry relative="1" as="geometry">
            <mxPoint x="800" y="470" as="targetPoint" />
            <Array as="points">
              <mxPoint x="750" y="355" />
              <mxPoint x="750" y="460" />
            </Array>
          </mxGeometry>
        </mxCell>
        <mxCell id="J5lEDxen7dhJZbyypbdc-3" style="edgeStyle=orthogonalEdgeStyle;rounded=0;orthogonalLoop=1;jettySize=auto;html=1;entryX=0;entryY=0.25;entryDx=0;entryDy=0;" parent="1" source="XKbH0hADGiryWMfeD4Mq-4" target="XKbH0hADGiryWMfeD4Mq-15" edge="1">
          <mxGeometry relative="1" as="geometry">
            <Array as="points">
              <mxPoint x="315" y="345" />
              <mxPoint x="315" y="460" />
            </Array>
          </mxGeometry>
        </mxCell>
        <mxCell id="J5lEDxen7dhJZbyypbdc-21" style="edgeStyle=orthogonalEdgeStyle;rounded=0;orthogonalLoop=1;jettySize=auto;html=1;exitX=0.25;exitY=1;exitDx=0;exitDy=0;entryX=1;entryY=0.5;entryDx=0;entryDy=0;dashed=1;" parent="1" source="XKbH0hADGiryWMfeD4Mq-4" target="J5lEDxen7dhJZbyypbdc-12" edge="1">
          <mxGeometry relative="1" as="geometry" />
        </mxCell>
        <mxCell id="XKbH0hADGiryWMfeD4Mq-4" value="verify completion of element-level security goals" style="shape=process;whiteSpace=wrap;html=1;backgroundOutline=1;" parent="1" vertex="1">
          <mxGeometry x="175" y="315" width="120" height="60" as="geometry" />
        </mxCell>
        <mxCell id="J5lEDxen7dhJZbyypbdc-17" style="edgeStyle=orthogonalEdgeStyle;rounded=0;orthogonalLoop=1;jettySize=auto;html=1;entryX=0.5;entryY=0;entryDx=0;entryDy=0;dashed=1;" parent="1" source="XKbH0hADGiryWMfeD4Mq-6" target="J5lEDxen7dhJZbyypbdc-15" edge="1">
          <mxGeometry relative="1" as="geometry" />
        </mxCell>
        <mxCell id="XKbH0hADGiryWMfeD4Mq-6" value="(other) lead" style="shape=umlActor;verticalLabelPosition=bottom;labelBackgroundColor=#F9F7ED;verticalAlign=top;html=1;outlineConnect=0;fillColor=none;" parent="1" vertex="1">
          <mxGeometry x="622" y="165" width="30" height="60" as="geometry" />
        </mxCell>
        <mxCell id="J5lEDxen7dhJZbyypbdc-2" style="edgeStyle=orthogonalEdgeStyle;rounded=0;orthogonalLoop=1;jettySize=auto;html=1;entryX=0;entryY=0.5;entryDx=0;entryDy=0;fillColor=#fa6800;strokeColor=#C73500;" parent="1" source="XKbH0hADGiryWMfeD4Mq-12" target="XKbH0hADGiryWMfeD4Mq-4" edge="1">
          <mxGeometry relative="1" as="geometry" />
        </mxCell>
        <mxCell id="XKbH0hADGiryWMfeD4Mq-12" value="element-level security goals" style="shape=note;whiteSpace=wrap;html=1;backgroundOutline=1;darkOpacity=0.05;" parent="1" vertex="1">
          <mxGeometry x="55" y="295" width="80" height="100" as="geometry" />
        </mxCell>
        <mxCell id="XKbH0hADGiryWMfeD4Mq-30" style="edgeStyle=orthogonalEdgeStyle;rounded=0;orthogonalLoop=1;jettySize=auto;html=1;entryX=0;entryY=0.5;entryDx=0;entryDy=0;fillColor=#fa6800;strokeColor=#C73500;" parent="1" source="XKbH0hADGiryWMfeD4Mq-14" target="XKbH0hADGiryWMfeD4Mq-15" edge="1">
          <mxGeometry relative="1" as="geometry" />
        </mxCell>
        <mxCell id="XKbH0hADGiryWMfeD4Mq-14" value="element-level security requirements" style="shape=note;whiteSpace=wrap;html=1;backgroundOutline=1;darkOpacity=0.05;" parent="1" vertex="1">
          <mxGeometry x="220" y="425" width="80" height="100" as="geometry" />
        </mxCell>
        <mxCell id="J5lEDxen7dhJZbyypbdc-4" style="edgeStyle=orthogonalEdgeStyle;rounded=0;orthogonalLoop=1;jettySize=auto;html=1;entryX=0;entryY=0.5;entryDx=0;entryDy=0;" parent="1" source="XKbH0hADGiryWMfeD4Mq-15" target="XKbH0hADGiryWMfeD4Mq-19" edge="1">
          <mxGeometry relative="1" as="geometry" />
        </mxCell>
        <mxCell id="XKbH0hADGiryWMfeD4Mq-15" value="verify completion of element-level security requirements" style="shape=process;whiteSpace=wrap;html=1;backgroundOutline=1;" parent="1" vertex="1">
          <mxGeometry x="345" y="445" width="120" height="60" as="geometry" />
        </mxCell>
        <mxCell id="XKbH0hADGiryWMfeD4Mq-36" style="edgeStyle=orthogonalEdgeStyle;rounded=0;orthogonalLoop=1;jettySize=auto;html=1;entryX=0;entryY=0.5;entryDx=0;entryDy=0;" parent="1" source="XKbH0hADGiryWMfeD4Mq-19" target="J5lEDxen7dhJZbyypbdc-8" edge="1">
          <mxGeometry relative="1" as="geometry">
            <mxPoint x="665" y="475" as="targetPoint" />
          </mxGeometry>
        </mxCell>
        <mxCell id="XKbH0hADGiryWMfeD4Mq-37" style="edgeStyle=orthogonalEdgeStyle;rounded=0;orthogonalLoop=1;jettySize=auto;html=1;entryX=0.5;entryY=0;entryDx=0;entryDy=0;exitX=0.75;exitY=1;exitDx=0;exitDy=0;" parent="1" source="J5lEDxen7dhJZbyypbdc-8" target="XKbH0hADGiryWMfeD4Mq-21" edge="1">
          <mxGeometry relative="1" as="geometry" />
        </mxCell>
        <mxCell id="XKbH0hADGiryWMfeD4Mq-19" value="requirements phase gate&lt;br&gt;sign-off (security)" style="shape=process;whiteSpace=wrap;html=1;backgroundOutline=1;" parent="1" vertex="1">
          <mxGeometry x="505" y="445" width="120" height="60" as="geometry" />
        </mxCell>
        <mxCell id="XKbH0hADGiryWMfeD4Mq-21" value="requirements phase gate report" style="shape=document;whiteSpace=wrap;html=1;boundedLbl=1;" parent="1" vertex="1">
          <mxGeometry x="820" y="605" width="120" height="80" as="geometry" />
        </mxCell>
        <mxCell id="XKbH0hADGiryWMfeD4Mq-47" style="edgeStyle=orthogonalEdgeStyle;rounded=0;orthogonalLoop=1;jettySize=auto;html=1;entryX=0.5;entryY=0;entryDx=0;entryDy=0;fillColor=#6a00ff;strokeColor=#3700CC;" parent="1" source="XKbH0hADGiryWMfeD4Mq-44" target="XKbH0hADGiryWMfeD4Mq-4" edge="1">
          <mxGeometry relative="1" as="geometry" />
        </mxCell>
        <mxCell id="J5lEDxen7dhJZbyypbdc-5" style="edgeStyle=orthogonalEdgeStyle;rounded=0;orthogonalLoop=1;jettySize=auto;html=1;entryX=0.5;entryY=0;entryDx=0;entryDy=0;fillColor=#6a00ff;strokeColor=#3700CC;" parent="1" source="XKbH0hADGiryWMfeD4Mq-44" target="XKbH0hADGiryWMfeD4Mq-19" edge="1">
          <mxGeometry relative="1" as="geometry" />
        </mxCell>
        <mxCell id="J5lEDxen7dhJZbyypbdc-6" style="edgeStyle=orthogonalEdgeStyle;rounded=0;orthogonalLoop=1;jettySize=auto;html=1;entryX=0.5;entryY=0;entryDx=0;entryDy=0;fillColor=#6a00ff;strokeColor=#3700CC;" parent="1" source="XKbH0hADGiryWMfeD4Mq-44" target="XKbH0hADGiryWMfeD4Mq-15" edge="1">
          <mxGeometry relative="1" as="geometry" />
        </mxCell>
        <mxCell id="XKbH0hADGiryWMfeD4Mq-44" value="security lead" style="shape=umlActor;verticalLabelPosition=bottom;labelBackgroundColor=#F9F7ED;verticalAlign=top;html=1;outlineConnect=0;fillColor=none;" parent="1" vertex="1">
          <mxGeometry x="390" y="165" width="30" height="60" as="geometry" />
        </mxCell>
        <mxCell id="J5lEDxen7dhJZbyypbdc-9" style="edgeStyle=orthogonalEdgeStyle;rounded=0;orthogonalLoop=1;jettySize=auto;html=1;" parent="1" source="XKbH0hADGiryWMfeD4Mq-59" target="J5lEDxen7dhJZbyypbdc-8" edge="1">
          <mxGeometry relative="1" as="geometry" />
        </mxCell>
        <mxCell id="XKbH0hADGiryWMfeD4Mq-59" value="PMO lead" style="shape=umlActor;verticalLabelPosition=bottom;labelBackgroundColor=#D4E1F5;verticalAlign=top;html=1;outlineConnect=0;fillColor=none;" parent="1" vertex="1">
          <mxGeometry x="835" y="165" width="30" height="60" as="geometry" />
        </mxCell>
        <mxCell id="J5lEDxen7dhJZbyypbdc-10" style="edgeStyle=orthogonalEdgeStyle;rounded=0;orthogonalLoop=1;jettySize=auto;html=1;exitX=0.25;exitY=1;exitDx=0;exitDy=0;dashed=1;entryX=1;entryY=0.5;entryDx=0;entryDy=0;" parent="1" source="J5lEDxen7dhJZbyypbdc-8" target="J5lEDxen7dhJZbyypbdc-13" edge="1">
          <mxGeometry relative="1" as="geometry">
            <mxPoint x="245" y="575" as="targetPoint" />
            <Array as="points">
              <mxPoint x="820" y="580" />
            </Array>
          </mxGeometry>
        </mxCell>
        <mxCell id="J5lEDxen7dhJZbyypbdc-20" style="edgeStyle=orthogonalEdgeStyle;rounded=0;orthogonalLoop=1;jettySize=auto;html=1;entryX=0;entryY=0.5;entryDx=0;entryDy=0;" parent="1" source="J5lEDxen7dhJZbyypbdc-8" target="J5lEDxen7dhJZbyypbdc-19" edge="1">
          <mxGeometry relative="1" as="geometry" />
        </mxCell>
        <mxCell id="J5lEDxen7dhJZbyypbdc-8" value="requirements phase gate&lt;br&gt;sign-off" style="shape=process;whiteSpace=wrap;html=1;backgroundOutline=1;" parent="1" vertex="1">
          <mxGeometry x="790" y="445" width="120" height="60" as="geometry" />
        </mxCell>
        <mxCell id="J5lEDxen7dhJZbyypbdc-13" value="phase requirements incomplete" style="text;html=1;strokeColor=none;fillColor=none;align=center;verticalAlign=middle;whiteSpace=wrap;rounded=0;" parent="1" vertex="1">
          <mxGeometry x="620" y="555" width="90" height="50" as="geometry" />
        </mxCell>
        <mxCell id="J5lEDxen7dhJZbyypbdc-12" value="security phase requirements incomplete" style="text;html=1;strokeColor=none;fillColor=none;align=center;verticalAlign=middle;whiteSpace=wrap;rounded=0;" parent="1" vertex="1">
          <mxGeometry x="55" y="555" width="90" height="50" as="geometry" />
        </mxCell>
        <mxCell id="J5lEDxen7dhJZbyypbdc-14" style="edgeStyle=orthogonalEdgeStyle;rounded=0;orthogonalLoop=1;jettySize=auto;html=1;exitX=0.25;exitY=1;exitDx=0;exitDy=0;dashed=1;entryX=1;entryY=0.5;entryDx=0;entryDy=0;" parent="1" source="XKbH0hADGiryWMfeD4Mq-15" target="J5lEDxen7dhJZbyypbdc-12" edge="1">
          <mxGeometry relative="1" as="geometry">
            <mxPoint x="245" y="535" as="targetPoint" />
            <mxPoint x="535" y="505" as="sourcePoint" />
            <Array as="points">
              <mxPoint x="375" y="580" />
            </Array>
          </mxGeometry>
        </mxCell>
        <mxCell id="J5lEDxen7dhJZbyypbdc-18" style="edgeStyle=orthogonalEdgeStyle;rounded=0;orthogonalLoop=1;jettySize=auto;html=1;entryX=0;entryY=0.25;entryDx=0;entryDy=0;dashed=1;" parent="1" source="J5lEDxen7dhJZbyypbdc-15" target="J5lEDxen7dhJZbyypbdc-8" edge="1">
          <mxGeometry relative="1" as="geometry">
            <Array as="points">
              <mxPoint x="740" y="345" />
              <mxPoint x="740" y="460" />
            </Array>
          </mxGeometry>
        </mxCell>
        <mxCell id="J5lEDxen7dhJZbyypbdc-15" value="requirements phase gate&lt;br&gt;sign-off (other)" style="shape=process;whiteSpace=wrap;html=1;backgroundOutline=1;dashed=1;" parent="1" vertex="1">
          <mxGeometry x="577" y="315" width="120" height="60" as="geometry" />
        </mxCell>
        <mxCell id="J5lEDxen7dhJZbyypbdc-19" value="phase requirements complete" style="text;html=1;strokeColor=none;fillColor=none;align=center;verticalAlign=middle;whiteSpace=wrap;rounded=0;" parent="1" vertex="1">
          <mxGeometry x="960" y="450" width="90" height="50" as="geometry" />
        </mxCell>
        <mxCell id="MnviZEQy9tbMUkRqoLun-2" value="phase gate review meeting" style="text;html=1;strokeColor=none;fillColor=none;align=center;verticalAlign=middle;whiteSpace=wrap;rounded=0;" parent="1" vertex="1">
          <mxGeometry x="770" y="696" width="180" height="20" as="geometry" />
        </mxCell>
        <mxCell id="MnviZEQy9tbMUkRqoLun-3" value="prior to phase gate review meeting" style="text;html=1;strokeColor=none;fillColor=none;align=center;verticalAlign=middle;whiteSpace=wrap;rounded=0;" parent="1" vertex="1">
          <mxGeometry x="40" y="696" width="730" height="20" as="geometry" />
        </mxCell>
      </root>
    </mxGraphModel>
  </diagram>
</mxfile>
